# 3ds Max Wavefront OBJ Exporter v0.97b - (c)2007 guruware
# File Created: 13.06.2016 09:28:22

mtllib floor.mtl

#
# object Plane001
#

v  -5.0000 0.0000 -5.0000
v  -5.0000 0.0000 5.0000
v  5.0000 0.0000 5.0000
v  5.0000 0.0000 -5.0000
# 4 vertices

vn 0.0000 1.0000 -0.0000
# 1 vertex normals

vt 0.0000 10.0000 0.0000
vt 0.0000 0.0000 0.0000
vt 10.0000 0.0000 0.0000
vt 10.0000 10.0000 0.0000
# 4 texture coords

g Plane001
usemtl 13___Default
s 1
f 1/1/1 2/2/1 3/3/1 4/4/1 
# 1 polygons

#
# object Plane002
#

v  5.0000 10.0000 -5.0000
v  5.0000 10.0000 5.0000
v  5.0000 0.0000 5.0000
v  5.0000 0.0000 -5.0000
# 4 vertices

vn 1.0000 -0.0000 -0.0000
# 1 vertex normals

vt 0.0000 10.0000 0.0000
vt 0.0000 0.0000 0.0000
vt 10.0000 0.0000 0.0000
vt 10.0000 10.0000 0.0000
# 4 texture coords

g Plane002
usemtl 13___Default
s 1
f 5/5/2 6/6/2 7/7/2 8/8/2 
# 1 polygons

#
# object Plane003
#

v  -5.0000 10.0000 -5.0000
v  -5.0000 10.0000 5.0000
v  -5.0000 0.0000 5.0000
v  -5.0000 0.0000 -5.0000
# 4 vertices

vn 1.0000 -0.0000 -0.0000
# 1 vertex normals

vt 0.0000 10.0000 0.0000
vt 0.0000 0.0000 0.0000
vt 10.0000 0.0000 0.0000
vt 10.0000 10.0000 0.0000
# 4 texture coords

g Plane003
usemtl 13___Default
s 1
f 9/9/3 10/10/3 11/11/3 12/12/3 
# 1 polygons

#
# object Plane004
#

v  5.0000 10.0000 -5.0000
v  -5.0000 10.0000 -5.0000
v  -5.0000 0.0000 -5.0000
v  5.0000 0.0000 -5.0000
# 4 vertices

vn -0.0000 0.0000 1.0000
# 1 vertex normals

vt 0.0000 10.0000 0.0000
vt 0.0000 0.0000 0.0000
vt 10.0000 0.0000 0.0000
vt 10.0000 10.0000 0.0000
# 4 texture coords

g Plane004
usemtl 13___Default
s 1
f 13/13/4 14/14/4 15/15/4 16/16/4 
# 1 polygons

#
# object Plane005
#

v  5.0000 10.0000 5.0000
v  -5.0000 10.0000 5.0000
v  -5.0000 0.0000 5.0000
v  5.0000 0.0000 5.0000
# 4 vertices

vn -0.0000 0.0000 1.0000
# 1 vertex normals

vt 0.0000 10.0000 0.0000
vt 0.0000 0.0000 0.0000
vt 10.0000 0.0000 0.0000
vt 10.0000 10.0000 0.0000
# 4 texture coords

g Plane005
usemtl 13___Default
s 1
f 17/17/5 18/18/5 19/19/5 20/20/5 
# 1 polygons

#
# object Plane006
#

v  -5.0000 10.0000 -5.0000
v  -5.0000 10.0000 5.0000
v  5.0000 10.0000 5.0000
v  5.0000 10.0000 -5.0000
# 4 vertices

vn 0.0000 1.0000 -0.0000
# 1 vertex normals

vt 0.0000 10.0000 0.0000
vt 0.0000 0.0000 0.0000
vt 10.0000 0.0000 0.0000
vt 10.0000 10.0000 0.0000
# 4 texture coords

g Plane006
usemtl 13___Default
s 1
f 21/21/6 22/22/6 23/23/6 24/24/6 
# 1 polygons

