# 3ds Max Wavefront OBJ Exporter v0.97b - (c)2007 guruware
# File Created: 13.06.2016 09:40:03

mtllib table.mtl

#
# object Cylinder001
#

v  0.0000 1.0000 -0.0000
v  0.9135 1.0000 -0.4067
v  0.9781 1.0000 -0.2079
v  1.0000 1.0000 -0.0000
v  0.6691 1.0000 -0.7431
v  0.8090 1.0000 -0.5878
v  0.3090 1.0000 -0.9511
v  0.5000 1.0000 -0.8660
v  -0.1045 1.0000 -0.9945
v  0.1045 1.0000 -0.9945
v  -0.5000 1.0000 -0.8660
v  -0.3090 1.0000 -0.9511
v  -0.8090 1.0000 -0.5878
v  -0.6691 1.0000 -0.7431
v  -0.9781 1.0000 -0.2079
v  -0.9135 1.0000 -0.4067
v  -0.9781 1.0000 0.2079
v  -1.0000 1.0000 0.0000
v  -0.8090 1.0000 0.5878
v  -0.9135 1.0000 0.4067
v  -0.5000 1.0000 0.8660
v  -0.6691 1.0000 0.7431
v  -0.1045 1.0000 0.9945
v  -0.3090 1.0000 0.9511
v  0.3090 1.0000 0.9511
v  0.1045 1.0000 0.9945
v  0.6691 1.0000 0.7431
v  0.5000 1.0000 0.8660
v  0.9135 1.0000 0.4067
v  0.8090 1.0000 0.5878
v  0.9781 1.0000 0.2079
v  0.9781 1.2000 -0.2079
v  1.0000 1.2000 -0.0000
v  0.9135 1.2000 -0.4067
v  0.8090 1.2000 -0.5878
v  0.6691 1.2000 -0.7431
v  0.5000 1.2000 -0.8660
v  0.3090 1.2000 -0.9511
v  0.1045 1.2000 -0.9945
v  -0.1045 1.2000 -0.9945
v  -0.3090 1.2000 -0.9511
v  -0.5000 1.2000 -0.8660
v  -0.6691 1.2000 -0.7431
v  -0.8090 1.2000 -0.5878
v  -0.9135 1.2000 -0.4067
v  -0.9781 1.2000 -0.2079
v  -1.0000 1.2000 0.0000
v  -0.9781 1.2000 0.2079
v  -0.9135 1.2000 0.4067
v  -0.8090 1.2000 0.5878
v  -0.6691 1.2000 0.7431
v  -0.5000 1.2000 0.8660
v  -0.3090 1.2000 0.9511
v  -0.1045 1.2000 0.9945
v  0.1045 1.2000 0.9945
v  0.3090 1.2000 0.9511
v  0.5000 1.2000 0.8660
v  0.6691 1.2000 0.7431
v  0.8090 1.2000 0.5878
v  0.9135 1.2000 0.4067
v  0.9781 1.2000 0.2079
v  0.0000 1.2000 -0.0000
# 62 vertices

vn 0.0000 -1.0000 -0.0000
vn 1.0000 0.0000 0.0000
vn 0.9781 0.0000 -0.2079
vn 0.9135 0.0000 -0.4067
vn 0.8090 0.0000 -0.5878
vn 0.6691 0.0000 -0.7431
vn 0.5000 0.0000 -0.8660
vn 0.3090 0.0000 -0.9511
vn 0.1045 0.0000 -0.9945
vn -0.1045 0.0000 -0.9945
vn -0.3090 0.0000 -0.9511
vn -0.5000 0.0000 -0.8660
vn -0.6691 0.0000 -0.7431
vn -0.8090 0.0000 -0.5878
vn -0.9135 0.0000 -0.4067
vn -0.9781 0.0000 -0.2079
vn -1.0000 0.0000 0.0000
vn -0.9781 0.0000 0.2079
vn -0.9135 0.0000 0.4067
vn -0.8090 0.0000 0.5878
vn -0.6691 0.0000 0.7431
vn -0.5000 0.0000 0.8660
vn -0.3090 0.0000 0.9511
vn -0.1045 0.0000 0.9945
vn 0.1045 0.0000 0.9945
vn 0.3090 0.0000 0.9511
vn 0.5000 0.0000 0.8660
vn 0.6691 0.0000 0.7431
vn 0.8090 0.0000 0.5878
vn 0.9135 0.0000 0.4067
vn 0.9781 0.0000 0.2079
vn 0.0000 1.0000 -0.0000
# 32 vertex normals

vt 1.0000 0.9945 0.0000
vt 1.9135 0.5878 0.0000
vt 1.9781 0.7866 0.0000
vt 2.0000 0.9945 0.0000
vt 1.6691 0.2514 0.0000
vt 1.8090 0.4067 0.0000
vt 1.3090 0.0435 0.0000
vt 1.5000 0.1285 0.0000
vt 0.8955 0.0000 0.0000
vt 1.1045 0.0000 0.0000
vt 0.5000 0.1285 0.0000
vt 0.6910 0.0435 0.0000
vt 0.1910 0.4067 0.0000
vt 0.3309 0.2514 0.0000
vt 0.0219 0.7866 0.0000
vt 0.0865 0.5878 0.0000
vt 0.0219 1.2024 0.0000
vt 0.0000 0.9945 0.0000
vt 0.1910 1.5823 0.0000
vt 0.0865 1.4013 0.0000
vt 0.5000 1.8605 0.0000
vt 0.3309 1.7377 0.0000
vt 0.8955 1.9890 0.0000
vt 0.6910 1.9456 0.0000
vt 1.3090 1.9456 0.0000
vt 1.1045 1.9890 0.0000
vt 1.6691 1.7377 0.0000
vt 1.5000 1.8605 0.0000
vt 1.9135 1.4013 0.0000
vt 1.8090 1.5823 0.0000
vt 1.9781 1.2024 0.0000
vt 4.7124 0.0000 1.0000
vt 4.9218 0.0000 1.0000
vt 4.9218 0.2000 1.0000
vt 4.7124 0.2000 1.0000
vt 5.1313 0.0000 1.0000
vt 5.1313 0.2000 1.0000
vt 5.3407 0.0000 1.0000
vt 5.3407 0.2000 1.0000
vt 5.5501 0.0000 1.0000
vt 5.5501 0.2000 1.0000
vt 5.7596 0.0000 1.0000
vt 5.7596 0.2000 1.0000
vt 5.9690 0.0000 1.0000
vt 5.9690 0.2000 1.0000
vt 6.1785 0.0000 1.0000
vt 6.1785 0.2000 1.0000
vt -0.1047 0.0000 1.0000
vt 0.1047 0.0000 1.0000
vt 0.1047 0.2000 1.0000
vt -0.1047 0.2000 1.0000
vt 0.3142 0.0000 1.0000
vt 0.3142 0.2000 1.0000
vt 0.5236 0.0000 1.0000
vt 0.5236 0.2000 1.0000
vt 0.7330 0.0000 1.0000
vt 0.7330 0.2000 1.0000
vt 0.9425 0.0000 1.0000
vt 0.9425 0.2000 1.0000
vt 1.1519 0.0000 1.0000
vt 1.1519 0.2000 1.0000
vt 1.3614 0.0000 1.0000
vt 1.3614 0.2000 1.0000
vt 1.5708 0.0000 1.0000
vt 1.5708 0.2000 1.0000
vt 1.7802 0.0000 1.0000
vt 1.7802 0.2000 1.0000
vt 1.9897 0.0000 1.0000
vt 1.9897 0.2000 1.0000
vt 2.1991 0.0000 1.0000
vt 2.1991 0.2000 1.0000
vt 2.4086 0.0000 1.0000
vt 2.4086 0.2000 1.0000
vt 2.6180 0.0000 1.0000
vt 2.6180 0.2000 1.0000
vt 2.8274 0.0000 1.0000
vt 2.8274 0.2000 1.0000
vt 3.0369 0.0000 1.0000
vt 3.0369 0.2000 1.0000
vt 3.2463 0.0000 1.0000
vt 3.2463 0.2000 1.0000
vt 3.4558 0.0000 1.0000
vt 3.4558 0.2000 1.0000
vt 3.6652 0.0000 1.0000
vt 3.6652 0.2000 1.0000
vt 3.8746 0.0000 1.0000
vt 3.8746 0.2000 1.0000
vt 4.0841 0.0000 1.0000
vt 4.0841 0.2000 1.0000
vt 4.2935 0.0000 1.0000
vt 4.2935 0.2000 1.0000
vt 4.5029 0.0000 1.0000
vt 4.5029 0.2000 1.0000
# 93 texture coords

g Cylinder001
usemtl 14___Default
s 1
f 1/1/1 2/2/1 3/3/1 4/4/1 
f 1/1/1 5/5/1 6/6/1 2/2/1 
f 1/1/1 7/7/1 8/8/1 5/5/1 
f 1/1/1 9/9/1 10/10/1 7/7/1 
f 1/1/1 11/11/1 12/12/1 9/9/1 
f 1/1/1 13/13/1 14/14/1 11/11/1 
f 1/1/1 15/15/1 16/16/1 13/13/1 
f 1/1/1 17/17/1 18/18/1 15/15/1 
f 1/1/1 19/19/1 20/20/1 17/17/1 
f 1/1/1 21/21/1 22/22/1 19/19/1 
f 1/1/1 23/23/1 24/24/1 21/21/1 
f 1/1/1 25/25/1 26/26/1 23/23/1 
f 1/1/1 27/27/1 28/28/1 25/25/1 
f 1/1/1 29/29/1 30/30/1 27/27/1 
f 1/1/1 4/4/1 31/31/1 29/29/1 
s 8
f 4/32/2 3/33/3 32/34/3 33/35/2 
f 3/33/3 2/36/4 34/37/4 32/34/3 
f 2/36/4 6/38/5 35/39/5 34/37/4 
f 6/38/5 5/40/6 36/41/6 35/39/5 
f 5/40/6 8/42/7 37/43/7 36/41/6 
f 8/42/7 7/44/8 38/45/8 37/43/7 
f 7/44/8 10/46/9 39/47/9 38/45/8 
f 10/48/9 9/49/10 40/50/10 39/51/9 
f 9/49/10 12/52/11 41/53/11 40/50/10 
f 12/52/11 11/54/12 42/55/12 41/53/11 
f 11/54/12 14/56/13 43/57/13 42/55/12 
f 14/56/13 13/58/14 44/59/14 43/57/13 
f 13/58/14 16/60/15 45/61/15 44/59/14 
f 16/60/15 15/62/16 46/63/16 45/61/15 
f 15/62/16 18/64/17 47/65/17 46/63/16 
f 18/64/17 17/66/18 48/67/18 47/65/17 
f 17/66/18 20/68/19 49/69/19 48/67/18 
f 20/68/19 19/70/20 50/71/20 49/69/19 
f 19/70/20 22/72/21 51/73/21 50/71/20 
f 22/72/21 21/74/22 52/75/22 51/73/21 
f 21/74/22 24/76/23 53/77/23 52/75/22 
f 24/76/23 23/78/24 54/79/24 53/77/23 
f 23/78/24 26/80/25 55/81/25 54/79/24 
f 26/80/25 25/82/26 56/83/26 55/81/25 
f 25/82/26 28/84/27 57/85/27 56/83/26 
f 28/84/27 27/86/28 58/87/28 57/85/27 
f 27/86/28 30/88/29 59/89/29 58/87/28 
f 30/88/29 29/90/30 60/91/30 59/89/29 
f 29/90/30 31/92/31 61/93/31 60/91/30 
f 31/92/31 4/32/2 33/35/2 61/93/31 
s 1
f 62/1/32 61/3/32 33/4/32 32/31/32 
f 62/1/32 32/31/32 34/29/32 35/30/32 
f 62/1/32 35/30/32 36/27/32 37/28/32 
f 62/1/32 37/28/32 38/25/32 39/26/32 
f 62/1/32 39/26/32 40/23/32 41/24/32 
f 62/1/32 41/24/32 42/21/32 43/22/32 
f 62/1/32 43/22/32 44/19/32 45/20/32 
f 62/1/32 45/20/32 46/17/32 47/18/32 
f 62/1/32 47/18/32 48/15/32 49/16/32 
f 62/1/32 49/16/32 50/13/32 51/14/32 
f 62/1/32 51/14/32 52/11/32 53/12/32 
f 62/1/32 53/12/32 54/9/32 55/10/32 
f 62/1/32 55/10/32 56/7/32 57/8/32 
f 62/1/32 57/8/32 58/5/32 59/6/32 
f 62/1/32 59/6/32 60/2/32 61/3/32 
# 60 polygons

#
# object Cylinder002
#

v  0.0000 0.0000 -0.0000
v  0.1827 0.0000 -0.0813
v  0.1956 0.0000 -0.0416
v  0.2000 0.0000 -0.0000
v  0.1338 0.0000 -0.1486
v  0.1618 0.0000 -0.1176
v  0.0618 0.0000 -0.1902
v  0.1000 0.0000 -0.1732
v  -0.0209 0.0000 -0.1989
v  0.0209 0.0000 -0.1989
v  -0.1000 0.0000 -0.1732
v  -0.0618 0.0000 -0.1902
v  -0.1618 0.0000 -0.1176
v  -0.1338 0.0000 -0.1486
v  -0.1956 0.0000 -0.0416
v  -0.1827 0.0000 -0.0813
v  -0.1956 0.0000 0.0416
v  -0.2000 0.0000 0.0000
v  -0.1618 0.0000 0.1176
v  -0.1827 0.0000 0.0813
v  -0.1000 0.0000 0.1732
v  -0.1338 0.0000 0.1486
v  -0.0209 0.0000 0.1989
v  -0.0618 0.0000 0.1902
v  0.0618 0.0000 0.1902
v  0.0209 0.0000 0.1989
v  0.1338 0.0000 0.1486
v  0.1000 0.0000 0.1732
v  0.1827 0.0000 0.0813
v  0.1618 0.0000 0.1176
v  0.1956 0.0000 0.0416
v  0.1956 1.0000 -0.0416
v  0.2000 1.0000 -0.0000
v  0.1827 1.0000 -0.0813
v  0.1618 1.0000 -0.1176
v  0.1338 1.0000 -0.1486
v  0.1000 1.0000 -0.1732
v  0.0618 1.0000 -0.1902
v  0.0209 1.0000 -0.1989
v  -0.0209 1.0000 -0.1989
v  -0.0618 1.0000 -0.1902
v  -0.1000 1.0000 -0.1732
v  -0.1338 1.0000 -0.1486
v  -0.1618 1.0000 -0.1176
v  -0.1827 1.0000 -0.0813
v  -0.1956 1.0000 -0.0416
v  -0.2000 1.0000 0.0000
v  -0.1956 1.0000 0.0416
v  -0.1827 1.0000 0.0813
v  -0.1618 1.0000 0.1176
v  -0.1338 1.0000 0.1486
v  -0.1000 1.0000 0.1732
v  -0.0618 1.0000 0.1902
v  -0.0209 1.0000 0.1989
v  0.0209 1.0000 0.1989
v  0.0618 1.0000 0.1902
v  0.1000 1.0000 0.1732
v  0.1338 1.0000 0.1486
v  0.1618 1.0000 0.1176
v  0.1827 1.0000 0.0813
v  0.1956 1.0000 0.0416
v  0.0000 1.0000 -0.0000
# 62 vertices

vn 0.0000 -1.0000 -0.0000
vn 1.0000 0.0000 0.0000
vn 0.9781 0.0000 -0.2079
vn 0.9135 0.0000 -0.4067
vn 0.8090 0.0000 -0.5878
vn 0.6691 0.0000 -0.7431
vn 0.5000 0.0000 -0.8660
vn 0.3090 0.0000 -0.9511
vn 0.1045 0.0000 -0.9945
vn -0.1045 0.0000 -0.9945
vn -0.3090 0.0000 -0.9511
vn -0.5000 0.0000 -0.8660
vn -0.6691 0.0000 -0.7431
vn -0.8090 0.0000 -0.5878
vn -0.9135 0.0000 -0.4067
vn -0.9781 0.0000 -0.2079
vn -1.0000 0.0000 0.0000
vn -0.9781 0.0000 0.2079
vn -0.9135 0.0000 0.4067
vn -0.8090 0.0000 0.5878
vn -0.6691 0.0000 0.7431
vn -0.5000 0.0000 0.8660
vn -0.3090 0.0000 0.9511
vn -0.1045 0.0000 0.9945
vn 0.1045 0.0000 0.9945
vn 0.3090 0.0000 0.9511
vn 0.5000 0.0000 0.8660
vn 0.6691 0.0000 0.7431
vn 0.8090 0.0000 0.5878
vn 0.9135 0.0000 0.4067
vn 0.9781 0.0000 0.2079
vn 0.0000 1.0000 -0.0000
# 32 vertex normals

vt 0.2000 0.1989 0.0000
vt 0.3827 0.1176 0.0000
vt 0.3956 0.1573 0.0000
vt 0.4000 0.1989 0.0000
vt 0.3338 0.0503 0.0000
vt 0.3618 0.0813 0.0000
vt 0.2618 0.0087 0.0000
vt 0.3000 0.0257 0.0000
vt 0.1791 0.0000 0.0000
vt 0.2209 0.0000 0.0000
vt 0.1000 0.0257 0.0000
vt 0.1382 0.0087 0.0000
vt 0.0382 0.0813 0.0000
vt 0.0662 0.0503 0.0000
vt 0.0044 0.1573 0.0000
vt 0.0173 0.1176 0.0000
vt 0.0044 0.2405 0.0000
vt 0.0000 0.1989 0.0000
vt 0.0382 0.3165 0.0000
vt 0.0173 0.2803 0.0000
vt 0.1000 0.3721 0.0000
vt 0.0662 0.3475 0.0000
vt 0.1791 0.3978 0.0000
vt 0.1382 0.3891 0.0000
vt 0.2618 0.3891 0.0000
vt 0.2209 0.3978 0.0000
vt 0.3338 0.3475 0.0000
vt 0.3000 0.3721 0.0000
vt 0.3827 0.2803 0.0000
vt 0.3618 0.3165 0.0000
vt 0.3956 0.2405 0.0000
vt 0.9425 0.0000 1.0000
vt 0.9844 0.0000 1.0000
vt 0.9844 1.0000 1.0000
vt 0.9425 1.0000 1.0000
vt 1.0263 0.0000 1.0000
vt 1.0263 1.0000 1.0000
vt 1.0681 0.0000 1.0000
vt 1.0681 1.0000 1.0000
vt 1.1100 0.0000 1.0000
vt 1.1100 1.0000 1.0000
vt 1.1519 0.0000 1.0000
vt 1.1519 1.0000 1.0000
vt 1.1938 0.0000 1.0000
vt 1.1938 1.0000 1.0000
vt 1.2357 0.0000 1.0000
vt 1.2357 1.0000 1.0000
vt -0.0209 0.0000 1.0000
vt 0.0209 0.0000 1.0000
vt 0.0209 1.0000 1.0000
vt -0.0209 1.0000 1.0000
vt 0.0628 0.0000 1.0000
vt 0.0628 1.0000 1.0000
vt 0.1047 0.0000 1.0000
vt 0.1047 1.0000 1.0000
vt 0.1466 0.0000 1.0000
vt 0.1466 1.0000 1.0000
vt 0.1885 0.0000 1.0000
vt 0.1885 1.0000 1.0000
vt 0.2304 0.0000 1.0000
vt 0.2304 1.0000 1.0000
vt 0.2723 0.0000 1.0000
vt 0.2723 1.0000 1.0000
vt 0.3142 0.0000 1.0000
vt 0.3142 1.0000 1.0000
vt 0.3560 0.0000 1.0000
vt 0.3560 1.0000 1.0000
vt 0.3979 0.0000 1.0000
vt 0.3979 1.0000 1.0000
vt 0.4398 0.0000 1.0000
vt 0.4398 1.0000 1.0000
vt 0.4817 0.0000 1.0000
vt 0.4817 1.0000 1.0000
vt 0.5236 0.0000 1.0000
vt 0.5236 1.0000 1.0000
vt 0.5655 0.0000 1.0000
vt 0.5655 1.0000 1.0000
vt 0.6074 0.0000 1.0000
vt 0.6074 1.0000 1.0000
vt 0.6493 0.0000 1.0000
vt 0.6493 1.0000 1.0000
vt 0.6912 0.0000 1.0000
vt 0.6912 1.0000 1.0000
vt 0.7330 0.0000 1.0000
vt 0.7330 1.0000 1.0000
vt 0.7749 0.0000 1.0000
vt 0.7749 1.0000 1.0000
vt 0.8168 0.0000 1.0000
vt 0.8168 1.0000 1.0000
vt 0.8587 0.0000 1.0000
vt 0.8587 1.0000 1.0000
vt 0.9006 0.0000 1.0000
vt 0.9006 1.0000 1.0000
# 93 texture coords

g Cylinder002
usemtl 14___Default
s 1
f 63/94/33 64/95/33 65/96/33 66/97/33 
f 63/94/33 67/98/33 68/99/33 64/95/33 
f 63/94/33 69/100/33 70/101/33 67/98/33 
f 63/94/33 71/102/33 72/103/33 69/100/33 
f 63/94/33 73/104/33 74/105/33 71/102/33 
f 63/94/33 75/106/33 76/107/33 73/104/33 
f 63/94/33 77/108/33 78/109/33 75/106/33 
f 63/94/33 79/110/33 80/111/33 77/108/33 
f 63/94/33 81/112/33 82/113/33 79/110/33 
f 63/94/33 83/114/33 84/115/33 81/112/33 
f 63/94/33 85/116/33 86/117/33 83/114/33 
f 63/94/33 87/118/33 88/119/33 85/116/33 
f 63/94/33 89/120/33 90/121/33 87/118/33 
f 63/94/33 91/122/33 92/123/33 89/120/33 
f 63/94/33 66/97/33 93/124/33 91/122/33 
s 8
f 66/125/34 65/126/35 94/127/35 95/128/34 
f 65/126/35 64/129/36 96/130/36 94/127/35 
f 64/129/36 68/131/37 97/132/37 96/130/36 
f 68/131/37 67/133/38 98/134/38 97/132/37 
f 67/133/38 70/135/39 99/136/39 98/134/38 
f 70/135/39 69/137/40 100/138/40 99/136/39 
f 69/137/40 72/139/41 101/140/41 100/138/40 
f 72/141/41 71/142/42 102/143/42 101/144/41 
f 71/142/42 74/145/43 103/146/43 102/143/42 
f 74/145/43 73/147/44 104/148/44 103/146/43 
f 73/147/44 76/149/45 105/150/45 104/148/44 
f 76/149/45 75/151/46 106/152/46 105/150/45 
f 75/151/46 78/153/47 107/154/47 106/152/46 
f 78/153/47 77/155/48 108/156/48 107/154/47 
f 77/155/48 80/157/49 109/158/49 108/156/48 
f 80/157/49 79/159/50 110/160/50 109/158/49 
f 79/159/50 82/161/51 111/162/51 110/160/50 
f 82/161/51 81/163/52 112/164/52 111/162/51 
f 81/163/52 84/165/53 113/166/53 112/164/52 
f 84/165/53 83/167/54 114/168/54 113/166/53 
f 83/167/54 86/169/55 115/170/55 114/168/54 
f 86/169/55 85/171/56 116/172/56 115/170/55 
f 85/171/56 88/173/57 117/174/57 116/172/56 
f 88/173/57 87/175/58 118/176/58 117/174/57 
f 87/175/58 90/177/59 119/178/59 118/176/58 
f 90/177/59 89/179/60 120/180/60 119/178/59 
f 89/179/60 92/181/61 121/182/61 120/180/60 
f 92/181/61 91/183/62 122/184/62 121/182/61 
f 91/183/62 93/185/63 123/186/63 122/184/62 
f 93/185/63 66/125/34 95/128/34 123/186/63 
s 1
f 124/94/64 123/96/64 95/97/64 94/124/64 
f 124/94/64 94/124/64 96/122/64 97/123/64 
f 124/94/64 97/123/64 98/120/64 99/121/64 
f 124/94/64 99/121/64 100/118/64 101/119/64 
f 124/94/64 101/119/64 102/116/64 103/117/64 
f 124/94/64 103/117/64 104/114/64 105/115/64 
f 124/94/64 105/115/64 106/112/64 107/113/64 
f 124/94/64 107/113/64 108/110/64 109/111/64 
f 124/94/64 109/111/64 110/108/64 111/109/64 
f 124/94/64 111/109/64 112/106/64 113/107/64 
f 124/94/64 113/107/64 114/104/64 115/105/64 
f 124/94/64 115/105/64 116/102/64 117/103/64 
f 124/94/64 117/103/64 118/100/64 119/101/64 
f 124/94/64 119/101/64 120/98/64 121/99/64 
f 124/94/64 121/99/64 122/95/64 123/96/64 
# 60 polygons

